<svg width="19" height="15" viewBox="0 0 19 15" fill="none" xmlns="http://www.w3.org/2000/svg">
<path d="M0.0129881 3.4502C0.0921736 3.49544 0.144964 3.52184 0.197754 3.55578C3.08614 5.42983 5.9783 7.29635 8.85914 9.17795C9.20605 9.40419 9.4964 9.40419 9.8433 9.17795C12.7279 7.29635 15.6163 5.42606 18.5047 3.55578C18.5537 3.52184 18.6103 3.49544 18.6895 3.4502C18.6932 3.54446 18.7008 3.60857 18.7008 3.67644C18.7008 6.65532 18.7045 9.63421 18.7008 12.6131C18.7008 14.0045 17.6978 15 16.3064 15C11.6683 15 7.03033 15 2.3961 15C1.00469 15 0.00544662 14.0007 0.00167588 12.6131C-0.00209486 9.63421 0.00167588 6.65532 0.00167588 3.67644C0.00167588 3.60857 0.00921736 3.54069 0.0129881 3.4502Z" fill="#D8BB7A"/>
<path d="M9.36499 0C11.6915 0 14.0143 0 16.3409 0C17.4457 0 18.3544 0.697587 18.6222 1.73454C18.6636 1.89291 18.6448 1.98718 18.4902 2.08522C15.5038 4.01584 12.5211 5.95023 9.54222 7.88839C9.40647 7.97511 9.31597 7.98643 9.17645 7.89216C6.19003 5.95023 3.19983 4.01207 0.209636 2.08145C0.0663475 1.99095 0.0361816 1.90799 0.0776597 1.74585C0.341611 0.71267 1.25413 0.00377074 2.35519 0C4.59123 0 6.82728 0 9.06333 0C9.16514 0 9.26695 0 9.36499 0Z" fill="#D8BB7A"/>
</svg>
