<svg width="68" height="68" viewBox="0 0 68 68" fill="none" xmlns="http://www.w3.org/2000/svg">
<circle opacity="0.1" cx="34" cy="34" r="34" fill="#D8BB7A"/>
<path d="M33.345 51.6999C31.1698 51.6999 29.0017 51.6999 26.8265 51.6999C26.1363 51.6999 25.8853 51.4489 25.8853 50.7518C25.8853 48.7997 25.8714 46.8476 25.8923 44.8956C25.8993 44.4494 25.7598 44.1357 25.4043 43.8568C22.7551 41.7514 21.1028 39.0255 20.6287 35.6721C20.4196 34.2081 20.4405 32.7092 20.4754 31.2242C20.5102 29.9624 21.6257 29.0212 22.8457 29.056C24.1215 29.0909 25.1185 30.0809 25.1533 31.3846C25.1812 32.2421 25.1533 33.1066 25.1673 33.9641C25.237 37.91 28.2696 41.3331 32.1807 41.8769C36.6844 42.5043 40.7349 39.5971 41.5157 35.1214C41.6691 34.236 41.6133 33.3157 41.6412 32.4094C41.6552 32.005 41.6273 31.5937 41.6691 31.1894C41.7946 29.9484 42.7985 29.0491 44.0116 29.0491C45.2037 29.056 46.2774 29.9484 46.3331 31.1615C46.4447 33.4412 46.4168 35.707 45.6151 37.903C44.7366 40.3083 43.3214 42.3231 41.2996 43.8986C40.9371 44.1845 40.7698 44.4912 40.7767 44.9583C40.7977 46.8755 40.7837 48.7927 40.7837 50.7099C40.7837 51.4629 40.5536 51.6929 39.8147 51.6929C37.6674 51.6999 35.5062 51.6999 33.345 51.6999Z" fill="#D8BB7A"/>
<path d="M29.6918 24.6501C29.7128 24.2666 29.7755 23.8832 29.7476 23.5067C29.7267 23.2209 29.643 22.9072 29.4827 22.6841C29.0435 22.0845 28.5485 21.5268 28.0744 20.9551C27.5376 20.2998 27.7328 19.7211 28.5485 19.498C29.2387 19.3098 29.9289 19.1076 30.626 18.9264C30.9955 18.8288 31.2674 18.6475 31.4696 18.3129C31.8391 17.7063 32.2435 17.1277 32.6339 16.5351C33.101 15.824 33.7005 15.824 34.1676 16.5211C34.572 17.1277 34.9763 17.7412 35.3737 18.3547C35.555 18.6335 35.7781 18.8078 36.1057 18.8915C36.8447 19.0797 37.5837 19.2959 38.3158 19.512C39.0826 19.7351 39.2569 20.3207 38.748 20.9412C38.2809 21.5059 37.8208 22.0775 37.3467 22.6353C37.1097 22.9072 37.026 23.2 37.0469 23.5625C37.1027 24.3294 37.1375 25.0962 37.1654 25.8562C37.1933 26.6091 36.6844 26.9577 35.9733 26.6788C35.2831 26.4069 34.5929 26.142 33.9027 25.8492C33.5611 25.7028 33.2404 25.6958 32.8988 25.8422C32.2016 26.135 31.4975 26.4069 30.8003 26.6788C30.1171 26.9437 29.6082 26.5882 29.6291 25.8631C29.65 25.4588 29.6779 25.0544 29.6918 24.6501C29.6988 24.6501 29.6988 24.6501 29.6918 24.6501Z" fill="#D8BB7A"/>
<path d="M29.338 33.8178C29.3519 31.6008 31.1436 29.8091 33.3536 29.8091C35.5706 29.8091 37.3902 31.6426 37.3763 33.8596C37.3623 36.0696 35.5567 37.8543 33.3327 37.8404C31.1157 37.8334 29.324 36.0278 29.338 33.8178Z" fill="#D8BB7A"/>
<path d="M47.163 20.3625C47.0305 20.6065 46.9399 20.8993 46.7517 21.0945C45.3364 22.5377 43.9072 23.9599 42.4711 25.3821C42.0179 25.8283 41.3347 25.8213 40.9094 25.3821C40.4912 24.9498 40.4842 24.2945 40.9304 23.8483C42.3595 22.4052 43.7957 20.969 45.2388 19.5399C45.5874 19.1983 46.0127 19.1216 46.4589 19.3237C46.8841 19.512 47.0863 19.8606 47.163 20.3625Z" fill="#D8BB7A"/>
<path d="M25.3708 25.7796C25.1198 25.6471 24.827 25.5704 24.6318 25.3822C23.1817 23.96 21.7525 22.5238 20.3233 21.0807C19.8911 20.6415 19.898 19.9652 20.3094 19.5469C20.7277 19.1216 21.3969 19.0938 21.8431 19.533C23.2932 20.9691 24.7364 22.4123 26.1725 23.8624C26.5072 24.197 26.5769 24.6153 26.3956 25.0545C26.2143 25.4798 25.8727 25.6889 25.3708 25.7796Z" fill="#D8BB7A"/>
</svg>
