<svg width="68" height="68" viewBox="0 0 68 68" fill="none" xmlns="http://www.w3.org/2000/svg">
<circle opacity="0.1" cx="34" cy="34" r="34" fill="#D8BB7A"/>
<g clip-path="url(#clip0_6029_205)">
<path d="M20.5508 35.6272C20.5508 34.3933 19.5359 33.3998 18.3015 33.4273C17.0973 33.4538 16.1504 34.4711 16.1504 35.6746V36.8272H20.5508V35.6272Z" fill="#D8BB7A"/>
<path d="M33.4196 40.4313H32.3786C31.6074 40.4313 30.2422 40.3871 28.4878 41.0017L28.4704 41.008L20.5557 43.8409C20.5536 43.8395 20.5529 43.8388 20.5508 43.8375V38.9189H16.1504V45.0193C16.1504 47.6954 18.7979 50.2635 21.3199 49.3689L24.3265 47.7191C24.3286 47.7205 24.3286 47.7212 24.3307 47.7219L24.2742 50.7885C24.2652 51.3728 24.7358 51.8504 25.3201 51.8504C33.6195 51.8488 31.4081 51.8494 36.2421 51.8476V47.8753C36.2421 47.2973 36.71 46.8294 37.288 46.8294C37.8653 46.8294 38.3339 47.2973 38.3339 47.8753V51.8476L39.9781 51.8469C40.5561 51.8469 41.0239 51.3791 41.0239 50.801V48.0357C41.0239 43.8361 37.6192 40.4313 33.4196 40.4313Z" fill="#D8BB7A"/>
<path d="M32.3975 38.7006C34.7738 38.6909 36.6976 36.7608 36.6976 34.3825V33.2801C36.6976 30.8885 34.7578 28.9612 32.3787 28.9619C29.9822 28.9619 28.0605 30.9522 28.0605 33.3484V34.379C28.0605 36.7403 29.9641 38.7006 32.3975 38.7006Z" fill="#D8BB7A"/>
<path d="M48.9577 16.1504H37.5505C35.9558 16.1504 34.6582 17.448 34.6582 19.0426V25.2372C34.6582 26.8297 35.9544 28.1259 37.547 28.1259H38.8418V32.2523C38.8418 33.1839 39.9707 33.6518 40.6303 32.9963L45.5342 28.1259H48.9612C50.5538 28.1259 51.85 26.8297 51.85 25.2372V19.0426C51.85 17.448 50.5524 16.1504 48.9577 16.1504ZM41.5109 23.1837H38.4932C37.9158 23.1837 37.4473 22.7151 37.4473 22.1378C37.4473 21.5605 37.9158 21.0919 38.4932 21.0919H41.5109C42.0883 21.0919 42.5568 21.5605 42.5568 22.1378C42.5568 22.7151 42.0883 23.1837 41.5109 23.1837ZM48.015 23.1837H44.9973C44.4199 23.1837 43.9514 22.7151 43.9514 22.1378C43.9514 21.5605 44.4199 21.0919 44.9973 21.0919H48.015C48.5924 21.0919 49.0609 21.5605 49.0609 22.1378C49.0609 22.7151 48.5924 23.1837 48.015 23.1837Z" fill="#D8BB7A"/>
</g>
<defs>
<clipPath id="clip0_6029_205">
<rect width="35.7" height="35.7" fill="white" transform="translate(16.1504 16.1504)"/>
</clipPath>
</defs>
</svg>
