<svg width="66" height="66" viewBox="0 0 66 66" fill="none" xmlns="http://www.w3.org/2000/svg">
<g clip-path="url(#clip0_6011_474)">
<path d="M8.13527 36.007C8.13527 33.7259 6.25891 31.8892 3.97676 31.94C1.75055 31.989 0 33.8697 0 36.0946V38.2255H8.13527V36.007Z" fill="#D8BB7A"/>
<path d="M31.9262 44.889H30.0016C28.5759 44.889 26.0521 44.8073 22.8087 45.9434L22.7764 45.955L8.1443 51.1925C8.14043 51.1899 8.13914 51.1886 8.13527 51.1861V42.093H0V53.371C0 58.3184 4.89457 63.0661 9.55711 61.4122L15.1155 58.3623C15.1194 58.3649 15.1194 58.3661 15.1233 58.3674L15.0189 64.0367C15.0021 65.117 15.8722 66 16.9525 66C32.2959 65.9969 28.2075 65.998 37.1443 65.9948V58.651C37.1443 57.5824 38.0093 56.7174 39.0779 56.7174C40.1453 56.7174 41.0115 57.5824 41.0115 58.651V65.9948L44.0511 65.9935C45.1198 65.9935 45.9847 65.1286 45.9847 64.0599V58.9475C45.9847 51.1835 39.6902 44.889 31.9262 44.889Z" fill="#D8BB7A"/>
<path d="M30.0355 41.6892C34.4287 41.6711 37.9852 38.103 37.9852 33.706V31.668C37.9852 27.2465 34.399 23.6835 30.0007 23.6848C25.5702 23.6848 22.0176 27.3643 22.0176 31.7943V33.6995C22.0176 38.0649 25.5367 41.6892 30.0355 41.6892Z" fill="#D8BB7A"/>
<path d="M60.6529 0H39.5638C36.6157 0 34.2168 2.39895 34.2168 5.34703V16.7991C34.2168 19.7433 36.6132 22.1396 39.5574 22.1396H41.9512V29.7683C41.9512 31.4905 44.0382 32.3555 45.2576 31.1438L54.3236 22.1396H60.6593C63.6036 22.1396 65.9999 19.7433 65.9999 16.7991V5.34703C65.9999 2.39895 63.601 0 60.6529 0ZM46.8857 13.0028H41.3066C40.2393 13.0028 39.373 12.1365 39.373 11.0692C39.373 10.0018 40.2393 9.13559 41.3066 9.13559H46.8857C47.953 9.13559 48.8193 10.0018 48.8193 11.0692C48.8193 12.1365 47.953 13.0028 46.8857 13.0028ZM58.9101 13.0028H53.331C52.2637 13.0028 51.3974 12.1365 51.3974 11.0692C51.3974 10.0018 52.2637 9.13559 53.331 9.13559H58.9101C59.9774 9.13559 60.8437 10.0018 60.8437 11.0692C60.8437 12.1365 59.9774 13.0028 58.9101 13.0028Z" fill="#D8BB7A"/>
</g>
<defs>
<clipPath id="clip0_6011_474">
<rect width="66" height="66" fill="white"/>
</clipPath>
</defs>
</svg>
