<svg width="54" height="70" viewBox="0 0 54 70" fill="none" xmlns="http://www.w3.org/2000/svg">
<path d="M26.1669 69.9999C21.9019 69.9999 17.6505 69.9999 13.3855 69.9999C12.0322 69.9999 11.5401 69.5078 11.5401 68.1408C11.5401 64.3132 11.5128 60.4857 11.5538 56.6581C11.5674 55.7832 11.294 55.1681 10.5969 54.6213C5.40231 50.493 2.16254 45.148 1.23299 38.5728C0.822895 35.7021 0.863904 32.7631 0.932254 29.8514C1.0006 27.3772 3.18779 25.5317 5.58002 25.6001C8.08161 25.6684 10.0364 27.6096 10.1048 30.1658C10.1594 31.8472 10.1048 33.5423 10.1321 35.2237C10.2688 42.9609 16.2152 49.6728 23.884 50.739C32.7148 51.9693 40.657 46.269 42.188 37.4929C42.4887 35.7568 42.3794 33.9524 42.4341 32.1753C42.4614 31.3825 42.4067 30.5759 42.4887 29.7831C42.7348 27.3498 44.7033 25.5864 47.0818 25.5864C49.4194 25.6001 51.5245 27.3498 51.6339 29.7284C51.8526 34.1985 51.7979 38.6412 50.2259 42.9472C48.5035 47.6633 45.7285 51.6139 41.7642 54.7033C41.0534 55.2638 40.7253 55.8652 40.739 56.7811C40.78 60.5403 40.7527 64.2996 40.7527 68.0588C40.7527 69.5351 40.3015 69.9862 38.8525 69.9862C34.6422 69.9999 30.4045 69.9999 26.1669 69.9999Z" fill="#D8BB7A"/>
<path d="M19.0038 16.9609C19.0448 16.2091 19.1678 15.4573 19.1131 14.7191C19.0721 14.1586 18.9081 13.5435 18.5937 13.106C17.7325 11.9304 16.7619 10.8368 15.8324 9.7159C14.7798 8.43093 15.1625 7.29633 16.7619 6.85889C18.1152 6.48981 19.4686 6.09338 20.8355 5.73796C21.5601 5.54658 22.0932 5.19117 22.4896 4.53501C23.2141 3.34573 24.007 2.21113 24.7725 1.04919C25.6884 -0.345139 26.864 -0.345139 27.7799 1.02185C28.5727 2.21113 29.3656 3.41408 30.1447 4.61703C30.5002 5.16383 30.9376 5.50557 31.5801 5.66961C33.0291 6.0387 34.4781 6.46247 35.9134 6.88623C37.4171 7.32367 37.7589 8.47194 36.761 9.68856C35.8451 10.7958 34.9429 11.9168 34.0133 13.0103C33.5485 13.5435 33.3845 14.1176 33.4255 14.8284C33.5349 16.3321 33.6032 17.8358 33.6579 19.3258C33.7126 20.8022 32.7147 21.4857 31.3204 20.9389C29.967 20.4058 28.6137 19.8863 27.2604 19.3122C26.5906 19.0251 25.9618 19.0114 25.2919 19.2985C23.9249 19.8726 22.5443 20.4058 21.1773 20.9389C19.8376 21.4583 18.8397 20.7612 18.8808 19.3395C18.9218 18.5467 18.9764 17.7538 19.0038 16.9609C19.0175 16.9609 19.0175 16.9609 19.0038 16.9609Z" fill="#D8BB7A"/>
<path d="M18.3107 34.9368C18.338 30.5898 21.8512 27.0767 26.1846 27.0767C30.5316 27.0767 34.0994 30.6718 34.0721 35.0189C34.0448 39.3522 30.5043 42.8517 26.1436 42.8244C21.7965 42.8107 18.2834 39.2702 18.3107 34.9368Z" fill="#D8BB7A"/>
<path d="M53.2618 8.55398C53.0021 9.03243 52.8244 9.60657 52.4553 9.98932C49.6803 12.819 46.878 15.6076 44.062 18.3963C43.1735 19.2712 41.8338 19.2575 41 18.3963C40.1798 17.5488 40.1661 16.2638 41.041 15.3889C43.8433 12.5593 46.6593 9.74327 49.489 6.94094C50.1725 6.27111 51.0063 6.12074 51.8812 6.51717C52.7151 6.88626 53.1115 7.56975 53.2618 8.55398Z" fill="#D8BB7A"/>
<path d="M10.531 19.1758C10.0388 18.916 9.4647 18.7657 9.08195 18.3966C6.23861 15.6079 3.43628 12.7919 0.633952 9.96224C-0.213581 9.10104 -0.199912 7.77506 0.606612 6.95487C1.42681 6.121 2.73912 6.06632 3.61399 6.92753C6.45733 9.74353 9.28699 12.5732 12.103 15.4165C12.7591 16.0727 12.8958 16.8929 12.5404 17.7541C12.185 18.5879 11.5152 18.998 10.531 19.1758Z" fill="#D8BB7A"/>
</svg>
