<svg width="76" height="76" viewBox="0 0 76 76" fill="none" xmlns="http://www.w3.org/2000/svg">
<path d="M37.5182 70.999C38.0596 70.999 38.535 70.669 38.7463 70.1674C38.7463 70.1674 40.4102 66.0094 42.0874 61.8382C43.0514 59.4358 47.6338 59.8054 50.3673 60.0166C51.2785 60.0958 51.9916 60.1486 52.5463 60.1222C53.5499 60.0694 55.8609 59.9374 56.9174 44.4406L58.6341 44.005C59.5717 43.7674 60.3376 43.1206 60.7206 42.223C61.1036 41.3254 61.0375 40.3222 60.5621 39.4774L55.7288 30.937C55.6892 30.8578 55.6628 30.7786 55.6628 30.6994V28.0198C55.6628 15.3214 44.7153 4.99902 31.2455 4.99902C17.7757 4.99902 6.82812 15.3214 6.82812 28.0198C6.82812 35.5834 9.50888 41.167 11.8595 46.1038C12.6386 47.7142 13.3649 49.2322 13.9592 50.737C15.8344 55.4362 12.2161 64.6234 10.6578 67.765C10.4597 68.161 10.4861 68.6362 10.7106 69.019C10.9351 69.4018 11.3313 69.6394 11.7803 69.6658L37.4521 70.999H37.5182ZM35.5901 50.3938C35.5901 51.1198 34.9959 51.7138 34.2696 51.7138H27.878C27.1517 51.7138 26.5574 51.1198 26.5574 50.3938V44.0182C26.5574 43.2922 27.1517 42.6982 27.878 42.6982H34.2696C34.9959 42.6982 35.5901 43.2922 35.5901 44.0182V50.3938ZM35.5901 38.7646C35.5901 39.4906 34.9959 40.0846 34.2696 40.0846H27.878C27.1517 40.0846 26.5574 39.4906 26.5574 38.7646V36.9166C26.5574 33.2338 28.9081 29.9866 32.4076 28.8382C34.3356 28.2046 35.5241 26.3302 35.2864 24.2974C35.0883 22.3834 33.4772 20.7862 31.5756 20.5882C30.3343 20.443 29.159 20.8126 28.2478 21.631C27.3498 22.4362 26.8216 23.5978 26.8216 24.799C26.8216 25.525 26.2405 26.119 25.501 26.119H19.1226C18.3963 26.119 17.8021 25.525 17.8021 24.799C17.8021 21.037 19.4132 17.4334 22.226 14.9122C25.0124 12.4174 28.7496 11.1898 32.566 11.6122C38.6671 12.2854 43.5928 17.209 44.2663 23.3074C44.953 29.4982 41.3875 35.1874 35.5901 37.273V38.7646Z" fill="#0C336B" fill-opacity="0.8"/>
</svg>
