<svg width="75" height="66" viewBox="0 0 75 66" fill="none" xmlns="http://www.w3.org/2000/svg">
<g clip-path="url(#clip0_6011_526)">
<path d="M13.2016 27.867C8.34861 27.867 4.40039 23.9188 4.40039 19.0658C4.40039 14.2129 8.34861 10.2646 13.2016 10.2646C18.0546 10.2646 22.0028 14.2129 22.0028 19.0658C22.0028 23.9188 18.0546 27.867 13.2016 27.867Z" fill="#0C336B" fill-opacity="0.8"/>
<path d="M44.0063 21.9993C39.1533 21.9993 35.2051 18.0511 35.2051 13.1982C35.2051 8.34518 39.1533 4.39697 44.0063 4.39697C48.8592 4.39697 52.8075 8.34518 52.8075 13.1982C52.8075 18.0511 48.8592 21.9993 44.0063 21.9993Z" fill="#0C336B" fill-opacity="0.8"/>
<path d="M72.9032 19.0659H64.102C62.8868 19.0659 61.9017 20.0511 61.9017 21.2662C61.9017 22.4814 62.8868 23.4665 64.102 23.4665H67.5912L45.0327 46.025L39.2542 40.2464C38.395 39.3873 37.0018 39.3873 36.1425 40.2464L19.1847 57.2044H2.2003C0.985146 57.2044 0 58.1895 0 59.4047C0 60.6198 0.985146 61.605 2.2003 61.605H20.096C20.6797 61.605 21.2393 61.3732 21.6518 60.9604L37.6984 44.914L43.477 50.6925C44.3361 51.5517 45.7294 51.5517 46.5886 50.6925L70.7029 26.5782V30.0674C70.7029 31.2825 71.688 32.2677 72.9032 32.2677C74.1183 32.2677 75.1035 31.2825 75.1035 30.0674V21.2662C75.1035 20.0511 74.1183 19.0659 72.9032 19.0659Z" fill="#0C336B" fill-opacity="0.8"/>
<path d="M51.2984 24.1968C49.2072 25.5881 46.6992 26.4003 44.0045 26.4003C41.31 26.4003 38.8018 25.5882 36.7107 24.1968C33.1503 26.5614 30.8027 30.607 30.8027 35.2015V39.3617L33.0296 37.1348C34.2763 35.8881 35.934 35.2015 37.697 35.2015C39.46 35.2015 41.1177 35.8881 42.3644 37.1347L45.0313 39.8016L55.7204 29.1124C54.6845 27.1232 53.1566 25.4311 51.2984 24.1968Z" fill="#0C336B" fill-opacity="0.8"/>
<path d="M5.90795 30.0645C2.34757 32.429 0 36.4746 0 41.0692V52.8041H17.3618L26.4036 43.7625V41.0692C26.4036 36.4746 24.056 32.429 20.4956 30.0645C18.4045 31.4559 15.8963 32.268 13.2018 32.268C10.5073 32.268 7.99911 31.4559 5.90795 30.0645Z" fill="#0C336B" fill-opacity="0.8"/>
</g>
<defs>
<clipPath id="clip0_6011_526">
<rect width="74.6842" height="66" fill="white"/>
</clipPath>
</defs>
</svg>
