<svg width="30" height="15" viewBox="0 0 30 15" fill="none" xmlns="http://www.w3.org/2000/svg">
<path d="M17.2033 10.6123C17.005 10.8283 16.7671 10.912 16.4762 10.912C15.78 10.9076 15.0793 10.9208 14.3831 10.9164C14.2156 10.9164 14.1231 10.9605 14.0393 11.1103C12.4573 13.9703 9.50924 15.4245 6.28353 14.8913C4.09339 14.5299 2.37918 13.3798 1.19819 11.5113C-0.54687 8.75272 -0.375009 5.38159 1.64326 2.8257C3.04019 1.0542 4.90423 0.0759104 7.16927 0.00540309C10.2099 -0.0959512 12.5102 1.23047 14.0702 3.83043C14.1848 4.01991 14.2949 4.09042 14.5153 4.09042C18.3535 4.08601 22.1961 4.09483 26.0344 4.09483C26.3032 4.09483 26.5323 4.15211 26.7306 4.35042C27.6032 5.23176 28.4845 6.10429 29.3615 6.98563C29.7008 7.32494 29.7008 7.71273 29.3659 8.05205C28.4889 8.93339 27.612 9.80592 26.7351 10.6873C26.5632 10.8591 26.3649 10.9429 26.1225 10.9384C25.8229 10.934 25.5188 10.912 25.2191 10.9384C24.7036 10.9869 24.3202 10.8195 24.047 10.3744C23.9368 10.1893 23.7782 10.0351 23.6415 9.8588C23.2582 10.1717 22.9144 10.4669 22.5575 10.7445C22.2578 10.9825 21.9802 10.9825 21.6673 10.7666C21.588 10.7137 21.5175 10.6476 21.4426 10.5903C21.1518 10.3479 20.8565 10.1056 20.548 9.84999C20.3585 10.0879 20.1779 10.3083 20.0016 10.533C19.627 11.0222 19.2128 11.0574 18.7809 10.6256C18.521 10.3656 18.2654 10.11 17.9789 9.82355C17.7101 10.1012 17.4457 10.3479 17.2033 10.6123ZM3.3751 8.95983C4.21237 9.74423 5.49913 9.72219 6.2659 8.91136C7.04589 8.0829 7.02385 6.77851 6.20861 6.02056C5.37574 5.24498 4.08899 5.26701 3.33103 6.06903C2.54664 6.89749 2.56427 8.19747 3.3751 8.95983Z" fill="#D8BB7A"/>
</svg>
