<svg width="100" height="22" viewBox="0 0 100 22" fill="none" xmlns="http://www.w3.org/2000/svg">
<path d="M95.1543 2.89575C95.1543 1.69828 96.0733 0.779297 97.2707 0.779297C98.4682 0.779297 99.3872 1.69828 99.3872 2.89575C99.3872 4.09322 98.4961 5.01221 97.2707 5.01221C96.0454 5.01221 95.1543 4.12107 95.1543 2.89575ZM98.8581 2.89575C98.8581 1.97677 98.1619 1.28056 97.2429 1.28056C96.3239 1.28056 95.6277 1.97677 95.6277 2.89575C95.6277 3.81474 96.3239 4.53879 97.2429 4.53879C98.1619 4.53879 98.8581 3.84259 98.8581 2.89575ZM96.5745 1.75398H97.3821C97.7999 1.75398 98.1062 2.06031 98.1062 2.47803C98.1062 2.75651 97.9669 3.00715 97.7163 3.11854L98.1897 3.95398H97.6885L97.2429 3.20208H97.0201V3.95398H96.5467L96.5745 1.75398ZM97.048 2.1717V2.75651H97.3821C97.5492 2.75651 97.6606 2.61727 97.6606 2.45018C97.6606 2.28309 97.5214 2.14385 97.3821 2.14385L97.048 2.1717Z" fill="#D8BB7A"/>
<path d="M11.2228 0C4.81772 0 0 4.73418 0 11C0 17.2658 4.81772 22 11.2228 22C17.6278 22 22.4456 17.2658 22.4456 11C22.4456 4.73418 17.6278 0 11.2228 0ZM11.2228 17.3772C7.63038 17.3772 4.87342 14.6481 4.87342 10.9722C4.87342 7.2962 7.60253 4.56709 11.2228 4.56709C14.843 4.56709 17.5722 7.2962 17.5722 10.9722C17.5722 14.6481 14.843 17.3772 11.2228 17.3772Z" fill="#D8BB7A"/>
<path d="M37.0962 0.362305H31.4709L23.4785 21.6104H28.6026L34.2279 5.6256L39.8532 21.6104H45.0886L37.0962 0.362305Z" fill="#D8BB7A"/>
<path d="M51.8834 6.18228C51.8834 4.98481 53.1087 4.23291 54.5846 4.23291C56.2277 4.23291 57.4808 5.17975 57.4808 6.46076H62.3821C62.3821 2.75696 59.0403 0 54.6403 0C50.2403 0 47.01 2.58987 47.01 6.57215C47.01 13.7848 57.815 12.3367 57.815 15.6506C57.815 16.8481 56.4505 17.7114 54.8353 17.7114C53.0251 17.7114 51.577 16.5975 51.577 15.2051H46.6758C46.6758 18.9924 50.1289 21.9443 54.7796 21.9443C59.4302 21.9443 62.7163 19.243 62.7163 15.0937C62.6884 7.71392 51.8834 9.5519 51.8834 6.18228Z" fill="#D8BB7A"/>
<path d="M71.8187 0.362305H67.0566V21.6104H71.8187V0.362305Z" fill="#D8BB7A"/>
<path d="M81.3448 6.18228C81.3448 4.98481 82.5701 4.23291 84.0461 4.23291C85.6891 4.23291 86.9423 5.17975 86.9423 6.46076H91.8435C91.8435 2.75696 88.5018 0 84.0739 0C79.6461 0 76.4436 2.58987 76.4436 6.57215C76.4436 13.7848 87.2486 12.3367 87.2486 15.6506C87.2486 16.8481 85.8841 17.7114 84.2689 17.7114C82.4587 17.7114 81.0106 16.5975 81.0106 15.2051H76.1094C76.1094 18.9924 79.5625 21.9443 84.2132 21.9443C88.8638 21.9443 92.1499 19.243 92.1499 15.0937C92.1499 7.71392 81.3448 9.5519 81.3448 6.18228Z" fill="#D8BB7A"/>
</svg>
